<svg xmlns="http://www.w3.org/2000/svg" viewBox="0 0 362.5 428.29"><defs><style>.e001dfe1-eb2f-4386-be16-c8d2f9c1ea6e,.f872c557-a2e8-4036-a153-7773bae6d14d{fill:#ffce80;}.a18bb22c-7960-458b-956f-a6153c773dac{fill:#fff;}.a436d2f9-9ca7-49e3-9a63-4e61a3d1e1e0{fill:#49341b;}.e57c6815-3b46-41f4-8d94-4d03520ac563{fill:none;stroke:#3f2c15;}.a457fc6b-c4da-470c-96f8-236ed0b7a9bf,.e57c6815-3b46-41f4-8d94-4d03520ac563,.f872c557-a2e8-4036-a153-7773bae6d14d{stroke-miterlimit:10;}.e68a7374-45f4-4905-a2ef-799e147c5b64{fill:#f2818a;}.a577505f-047a-43f0-b525-931bd88f83fa{fill:#f9b862;}.a457fc6b-c4da-470c-96f8-236ed0b7a9bf{fill:#8cc63f;}.a457fc6b-c4da-470c-96f8-236ed0b7a9bf,.f872c557-a2e8-4036-a153-7773bae6d14d{stroke:#000;}</style></defs><title>personImage</title><g id="ecb47248-bc08-410b-afba-063aa4aacd13" data-name="body"><circle class="e001dfe1-eb2f-4386-be16-c8d2f9c1ea6e" cx="171.5" cy="256.79" r="169"/><path d="M189,100.5A166.51,166.51,0,1,1,71.27,149.27,165.37,165.37,0,0,1,189,100.5m0-5A171.5,171.5,0,1,0,360.5,267,171.5,171.5,0,0,0,189,95.5Z" transform="translate(-17.5 -10.21)"/><circle class="a18bb22c-7960-458b-956f-a6153c773dac" cx="99.5" cy="256.79" r="50.5"/><path d="M117,217a50,50,0,1,1-50,50,50.06,50.06,0,0,1,50-50m0-1a51,51,0,1,0,51,51,51,51,0,0,0-51-51Z" transform="translate(-17.5 -10.21)"/><circle class="a18bb22c-7960-458b-956f-a6153c773dac" cx="237.5" cy="256.79" r="50.5"/><path d="M255,217a50,50,0,1,1-50,50,50.06,50.06,0,0,1,50-50m0-1a51,51,0,1,0,51,51,51,51,0,0,0-51-51Z" transform="translate(-17.5 -10.21)"/><path class="a436d2f9-9ca7-49e3-9a63-4e61a3d1e1e0" d="M194.5,40.5c.79,1.29,0,1.48-.2,2l-1,1.54c-.63,1-1.23,2.08-1.83,3.13-1.18,2.11-2.32,4.24-3.39,6.41C186,58,184,62.4,182.27,66.91S179,76,177.63,80.64,175.16,90,174.2,94.71s-1.62,9.52-2.13,14.31-.7,9.61-.71,14.43a148,148,0,0,0,2.8,28.71l-3.32.68a142.38,142.38,0,0,1-3-29.4c.06-4.94.37-9.87.89-14.77s1.32-9.77,2.33-14.59a158,158,0,0,1,8.78-28.14c1.88-4.53,3.95-9,6.25-13.34,1.14-2.17,2.35-4.31,3.6-6.43.63-1.05,1.27-2.1,1.93-3.14l1-1.55C193.09,41,193,40.21,194.5,40.5Z" transform="translate(-17.5 -10.21)"/><path class="e57c6815-3b46-41f4-8d94-4d03520ac563" d="M142.5,164.5s29,22,74-6" transform="translate(-17.5 -10.21)"/></g><g id="b4c23707-47fb-44a6-b196-c0c6bde05003" data-name="reye"><ellipse cx="218.5" cy="256.29" rx="18.5" ry="33"/><path d="M236,234c9.93,0,18,14.58,18,32.5S245.93,299,236,299s-18-14.58-18-32.5,8.07-32.5,18-32.5m0-1c-10.49,0-19,15-19,33.5s8.51,33.5,19,33.5,19-15,19-33.5S246.49,233,236,233Z" transform="translate(-17.5 -10.21)"/></g><g id="f6eb2dfe-d465-408b-bdc4-29a2b245fd71" data-name="leye"><ellipse cx="78.5" cy="254.29" rx="18.5" ry="33"/><path d="M96,232c9.93,0,18,14.58,18,32.5S105.93,297,96,297s-18-14.58-18-32.5S86.07,232,96,232m0-1c-10.49,0-19,15-19,33.5S85.51,298,96,298s19-15,19-33.5S106.49,231,96,231Z" transform="translate(-17.5 -10.21)"/></g><g id="a6086ef8-9c58-4240-99a1-4d1cec6c6b38" data-name="face"><circle class="e68a7374-45f4-4905-a2ef-799e147c5b64" cx="273.5" cy="319.79" r="14.5"/><path d="M291,316a14,14,0,1,1-14,14,14,14,0,0,1,14-14m0-1a15,15,0,1,0,15,15,15,15,0,0,0-15-15Z" transform="translate(-17.5 -10.21)"/><circle class="e68a7374-45f4-4905-a2ef-799e147c5b64" cx="59.5" cy="314.79" r="14.5"/><path d="M77,311a14,14,0,1,1-14,14,14,14,0,0,1,14-14m0-1a15,15,0,1,0,15,15,15,15,0,0,0-15-15Z" transform="translate(-17.5 -10.21)"/></g><g id="eaf24d47-fb17-4d5e-aa6b-b2a25c61a593" data-name="mouth"><path class="a577505f-047a-43f0-b525-931bd88f83fa" d="M188,422.5q-.94,0-1.92-.06A29.5,29.5,0,0,1,188,363.5q.94,0,1.92.06A29.5,29.5,0,0,1,188,422.5Z" transform="translate(-17.5 -10.21)"/><path d="M188,363v1c.63,0,1.26,0,1.88.06A29,29,0,0,1,188,422c-.62,0-1.26,0-1.88-.06A29,29,0,0,1,188,364v-1m0,0a30,30,0,0,0-1.95,59.94c.66,0,1.3.06,1.95.06A30,30,0,0,0,190,363.06c-.66,0-1.3-.06-1.95-.06Z" transform="translate(-17.5 -10.21)"/></g><g id="b09681a8-40d5-4252-9a24-d74b3115b453" data-name="leave"><path class="a457fc6b-c4da-470c-96f8-236ed0b7a9bf" d="M279.59,15.29c-53.9,13.55-114.71,46.53-97.86,64.27,18.82,12,88.39,16.16,157-22.25,24.53-13.73,30.85-24.74,26.38-32.61C357.09,10.57,314.21,6.59,279.59,15.29Z" transform="translate(-17.5 -10.21)"/><line class="a457fc6b-c4da-470c-96f8-236ed0b7a9bf" x1="161.52" y1="64.3" x2="347.7" y2="14.12"/><path class="a457fc6b-c4da-470c-96f8-236ed0b7a9bf" d="M334.09,32.71c3.92,3.53,12.45,6.87,20.43,14.93" transform="translate(-17.5 -10.21)"/><line class="a457fc6b-c4da-470c-96f8-236ed0b7a9bf" x1="301.32" y1="26.62" x2="321.79" y2="46.55"/><line class="a457fc6b-c4da-470c-96f8-236ed0b7a9bf" x1="279.12" y1="32.6" x2="303.1" y2="56.3"/><line class="a457fc6b-c4da-470c-96f8-236ed0b7a9bf" x1="261.19" y1="37.43" x2="287.02" y2="62.95"/><line class="a457fc6b-c4da-470c-96f8-236ed0b7a9bf" x1="241.35" y1="42.78" x2="266.2" y2="69.67"/><polyline class="a457fc6b-c4da-470c-96f8-236ed0b7a9bf" points="225.57 47.03 225.94 47.4 251.95 73.1"/><line class="a457fc6b-c4da-470c-96f8-236ed0b7a9bf" x1="211.18" y1="50.91" x2="236.37" y2="75.79"/><polyline class="a457fc6b-c4da-470c-96f8-236ed0b7a9bf" points="193.34 55.42 193.58 55.66 214.85 77.76"/><path class="a457fc6b-c4da-470c-96f8-236ed0b7a9bf" d="M215.87,39.24" transform="translate(-17.5 -10.21)"/><line class="a457fc6b-c4da-470c-96f8-236ed0b7a9bf" x1="192.34" y1="32.3" x2="193.81" y2="55.9"/><line class="a457fc6b-c4da-470c-96f8-236ed0b7a9bf" x1="216.46" y1="20.53" x2="211.5" y2="51.23"/><path class="a457fc6b-c4da-470c-96f8-236ed0b7a9bf" d="M251.53,23.85" transform="translate(-17.5 -10.21)"/><line class="a457fc6b-c4da-470c-96f8-236ed0b7a9bf" x1="236.96" y1="12.62" x2="225.16" y2="47.44"/><line class="a457fc6b-c4da-470c-96f8-236ed0b7a9bf" x1="259.39" y1="5.78" x2="241.83" y2="42.65"/><line class="a457fc6b-c4da-470c-96f8-236ed0b7a9bf" x1="281.54" y1="1.58" x2="261.42" y2="37.66"/><line class="a457fc6b-c4da-470c-96f8-236ed0b7a9bf" x1="301.92" y1="0.51" x2="279.42" y2="32.52"/><line class="a457fc6b-c4da-470c-96f8-236ed0b7a9bf" x1="321.79" y1="2.17" x2="301.64" y2="26.93"/><line class="a457fc6b-c4da-470c-96f8-236ed0b7a9bf" x1="336.52" y1="6.15" x2="316.62" y2="22.92"/></g><g id="a7a2d397-70cd-4967-b71d-9afeb29fdcf2" data-name="hands"><path class="f872c557-a2e8-4036-a153-7773bae6d14d" d="M268.19,366.67c42.69-49.44,94.95-105.41,108.24-96.63.9.6,3.16,2.51,3.07,10.46-.55,47.14-81.24,97.91-92.13,104.63" transform="translate(-17.5 -10.21)"/></g></svg>